<svg id="evunu8kix38p1" xmlns="http://www.w3.org/2000/svg" xmlns:xlink="http://www.w3.org/1999/xlink" viewBox="0 0 172 24" shape-rendering="geometricPrecision" text-rendering="geometricPrecision"><path id="evunu8kix38p2" d="M0,13.662500C0,12.132100,0.304832,10.777000,0.914497,9.596930C1.542090,8.416900,2.384860,7.504230,3.442810,6.858900C4.518690,6.195130,5.711120,5.863250,7.020110,5.863250C7.988400,5.863250,8.938760,6.084510,9.871180,6.527020C10.821500,6.951090,11.574700,7.522660,12.130500,8.241740L12.130500,0.885019L15.223700,0.885019L15.223700,21.351100L12.130500,21.351100L12.130500,19.055600C11.628500,19.793100,10.929100,20.401500,10.032600,20.880900C9.153930,21.360300,8.140810,21.600000,6.993210,21.600000C5.702160,21.600000,4.518690,21.268100,3.442810,20.604400C2.384860,19.922200,1.542090,18.981800,0.914497,17.783400C0.304832,16.566500,0,15.192800,0,13.662500ZM12.130500,13.717800C12.130500,12.666800,11.915400,11.754200,11.485000,10.979800C11.072600,10.205400,10.525700,9.615370,9.844290,9.209730C9.162900,8.804100,8.427710,8.601280,7.638740,8.601280C6.849760,8.601280,6.114580,8.804100,5.433190,9.209730C4.751800,9.596930,4.195930,10.177700,3.765570,10.952100C3.353150,11.708100,3.146940,12.611500,3.146940,13.662500C3.146940,14.713400,3.353150,15.635300,3.765570,16.428200C4.195930,17.221000,4.751800,17.829400,5.433190,18.253500C6.132510,18.659200,6.867690,18.862000,7.638740,18.862000C8.427710,18.862000,9.162900,18.659200,9.844290,18.253500C10.525700,17.847900,11.072600,17.257900,11.485000,16.483500C11.915400,15.690700,12.130500,14.768800,12.130500,13.717800Z" fill="rgb(117,255,105)" stroke="none" stroke-width="1"/><path id="evunu8kix38p3" d="M32.834000,13.358300C32.834000,13.929800,32.798200,14.446100,32.726500,14.907000L21.402800,14.907000C21.492500,16.123900,21.931800,17.101200,22.720800,17.838700C23.509800,18.576200,24.478100,18.944900,25.625700,18.944900C27.275300,18.944900,28.440900,18.235100,29.122300,16.815400L32.430600,16.815400C31.982300,18.216600,31.166400,19.369000,29.983000,20.272500C28.817400,21.157500,27.365000,21.600000,25.625700,21.600000C24.209100,21.600000,22.936000,21.277300,21.806300,20.632000C20.694500,19.968200,19.815900,19.046400,19.170400,17.866300C18.542800,16.667900,18.229000,15.285000,18.229000,13.717800C18.229000,12.150600,18.533800,10.777000,19.143500,9.596930C19.771100,8.398460,20.640800,7.476570,21.752500,6.831240C22.882200,6.185920,24.173200,5.863250,25.625700,5.863250C27.024300,5.863250,28.270500,6.176700,29.364300,6.803580C30.458100,7.430470,31.309900,8.315490,31.919500,9.458640C32.529200,10.583400,32.834000,11.883200,32.834000,13.358300ZM29.633300,12.362600C29.615400,11.201000,29.211900,10.269900,28.422900,9.569270C27.634000,8.868630,26.656700,8.518310,25.491200,8.518310C24.433200,8.518310,23.527700,8.868630,22.774600,9.569270C22.021500,10.251500,21.573200,11.182600,21.429700,12.362600L29.633300,12.362600Z" fill="rgb(117,255,105)" stroke="none" stroke-width="1"/><path id="evunu8kix38p4" d="M41.580600,18.530100L45.776500,6.112160L49.031000,6.112160L43.382700,21.351100L39.724700,21.351100L34.103200,6.112160L37.384700,6.112160L41.580600,18.530100Z" fill="rgb(117,255,105)" stroke="none" stroke-width="1"/><path id="evunu8kix38p5" d="M52.586100,21.544700C52.030200,21.544700,51.564000,21.351100,51.187400,20.963900C50.810900,20.576700,50.622600,20.097300,50.622600,19.525700C50.622600,18.954200,50.810900,18.474800,51.187400,18.087600C51.564000,17.700400,52.030200,17.506800,52.586100,17.506800C53.124000,17.506800,53.581300,17.700400,53.957800,18.087600C54.334400,18.474800,54.522600,18.954200,54.522600,19.525700C54.522600,20.097300,54.334400,20.576700,53.957800,20.963900C53.581300,21.351100,53.124000,21.544700,52.586100,21.544700Z" fill="rgb(117,255,105)" stroke="none" stroke-width="1"/><path id="evunu8kix38p6" d="M64.049800,8.684250L61.306400,8.684250L61.306400,21.351100L58.213200,21.351100L58.213200,8.684250L56.464900,8.684250L56.464900,6.112160L58.213200,6.112160L58.213200,5.033550C58.213200,3.281940,58.661500,2.009730,59.558100,1.216900C60.472600,0.405633,61.898100,0,63.834700,0L63.834700,2.627400C62.902200,2.627400,62.247800,2.811780,61.871200,3.180540C61.494600,3.530860,61.306400,4.148530,61.306400,5.033550L61.306400,6.112160L64.049800,6.112160L64.049800,8.684250Z" fill="rgb(117,255,105)" stroke="none" stroke-width="1"/><path id="evunu8kix38p7" d="M68.327300,4.093210C67.771400,4.093210,67.305200,3.899620,66.928700,3.512420C66.552100,3.125220,66.363800,2.645840,66.363800,2.074260C66.363800,1.502690,66.552100,1.023300,66.928700,0.636108C67.305200,0.248911,67.771400,0.055313,68.327300,0.055313C68.865200,0.055313,69.322500,0.248911,69.699100,0.636108C70.075600,1.023300,70.263900,1.502690,70.263900,2.074260C70.263900,2.645840,70.075600,3.125220,69.699100,3.512420C69.322500,3.899620,68.865200,4.093210,68.327300,4.093210ZM69.833500,6.112160L69.833500,21.351100L66.767300,21.351100L66.767300,6.112160L69.833500,6.112160Z" fill="rgb(117,255,105)" stroke="none" stroke-width="1"/><path id="evunu8kix38p8" d="M81.336600,5.863250C82.502100,5.863250,83.542200,6.112160,84.456600,6.609990C85.389100,7.107810,86.115300,7.845330,86.635300,8.822540C87.155300,9.799740,87.415300,10.979800,87.415300,12.362600L87.415300,21.351100L84.376000,21.351100L84.376000,12.832800C84.376000,11.468400,84.044200,10.426600,83.380800,9.707550C82.717300,8.970040,81.811800,8.601280,80.664200,8.601280C79.516600,8.601280,78.602100,8.970040,77.920700,9.707550C77.257200,10.426600,76.925500,11.468400,76.925500,12.832800L76.925500,21.351100L73.859300,21.351100L73.859300,6.112160L76.925500,6.112160L76.925500,7.854550C77.427600,7.227660,78.064100,6.739050,78.835200,6.388730C79.624200,6.038410,80.458000,5.863250,81.336600,5.863250Z" fill="rgb(117,255,105)" stroke="none" stroke-width="1"/><path id="evunu8kix38p9" d="M90.304400,13.662500C90.304400,12.132100,90.609300,10.777000,91.218900,9.596930C91.846500,8.416900,92.689300,7.504230,93.747200,6.858900C94.823100,6.195130,96.006600,5.863250,97.297600,5.863250C98.463200,5.863250,99.476300,6.102950,100.337000,6.582330C101.216000,7.043280,101.915000,7.624070,102.435000,8.324710L102.435000,6.112160L105.528000,6.112160L105.528000,21.351100L102.435000,21.351100L102.435000,19.083200C101.915000,19.802300,101.207000,20.401500,100.310000,20.880900C99.413500,21.360300,98.391400,21.600000,97.243800,21.600000C95.970700,21.600000,94.805200,21.268100,93.747200,20.604400C92.689300,19.922200,91.846500,18.981800,91.218900,17.783400C90.609300,16.566500,90.304400,15.192800,90.304400,13.662500ZM102.435000,13.717800C102.435000,12.666800,102.220000,11.754200,101.789000,10.979800C101.377000,10.205400,100.830000,9.615370,100.149000,9.209730C99.467300,8.804100,98.732100,8.601280,97.943200,8.601280C97.154200,8.601280,96.419000,8.804100,95.737600,9.209730C95.056200,9.596930,94.500400,10.177700,94.070000,10.952100C93.657600,11.708100,93.451400,12.611500,93.451400,13.662500C93.451400,14.713400,93.657600,15.635300,94.070000,16.428200C94.500400,17.221000,95.056200,17.829400,95.737600,18.253500C96.436900,18.659200,97.172100,18.862000,97.943200,18.862000C98.732100,18.862000,99.467300,18.659200,100.149000,18.253500C100.830000,17.847900,101.377000,17.257900,101.789000,16.483500C102.220000,15.690700,102.435000,14.768800,102.435000,13.717800Z" fill="rgb(117,255,105)" stroke="none" stroke-width="1"/><path id="evunu8kix38p10" d="M117.033000,5.863250C118.198000,5.863250,119.238000,6.112160,120.153000,6.609990C121.085000,7.107810,121.812000,7.845330,122.332000,8.822540C122.852000,9.799740,123.112000,10.979800,123.112000,12.362600L123.112000,21.351100L120.072000,21.351100L120.072000,12.832800C120.072000,11.468400,119.740000,10.426600,119.077000,9.707550C118.414000,8.970040,117.508000,8.601280,116.360000,8.601280C115.213000,8.601280,114.298000,8.970040,113.617000,9.707550C112.953000,10.426600,112.622000,11.468400,112.622000,12.832800L112.622000,21.351100L109.556000,21.351100L109.556000,6.112160L112.622000,6.112160L112.622000,7.854550C113.124000,7.227660,113.760000,6.739050,114.531000,6.388730C115.320000,6.038410,116.154000,5.863250,117.033000,5.863250Z" fill="rgb(117,255,105)" stroke="none" stroke-width="1"/><path id="evunu8kix38p11" d="M126.001000,13.717800C126.001000,12.150600,126.306000,10.777000,126.915000,9.596930C127.543000,8.398460,128.403000,7.476570,129.497000,6.831240C130.591000,6.185920,131.846000,5.863250,133.263000,5.863250C135.056000,5.863250,136.535000,6.305760,137.701000,7.190780C138.884000,8.057360,139.682000,9.301920,140.095000,10.924500L136.786000,10.924500C136.517000,10.168500,136.087000,9.578490,135.495000,9.154420C134.904000,8.730350,134.159000,8.518310,133.263000,8.518310C132.008000,8.518310,131.004000,8.979260,130.250000,9.901150C129.515000,10.804600,129.148000,12.076800,129.148000,13.717800C129.148000,15.358800,129.515000,16.640200,130.250000,17.562100C131.004000,18.484000,132.008000,18.944900,133.263000,18.944900C135.038000,18.944900,136.213000,18.142900,136.786000,16.538800L140.095000,16.538800C139.664000,18.087600,138.857000,19.322900,137.674000,20.244800C136.490000,21.148300,135.020000,21.600000,133.263000,21.600000C131.846000,21.600000,130.591000,21.277300,129.497000,20.632000C128.403000,19.968200,127.543000,19.046400,126.915000,17.866300C126.306000,16.667900,126.001000,15.285000,126.001000,13.717800Z" fill="rgb(117,255,105)" stroke="none" stroke-width="1"/><path id="evunu8kix38p12" d="M156.733000,13.358300C156.733000,13.929800,156.698000,14.446100,156.626000,14.907000L145.302000,14.907000C145.392000,16.123900,145.831000,17.101200,146.620000,17.838700C147.409000,18.576200,148.377000,18.944900,149.525000,18.944900C151.175000,18.944900,152.340000,18.235100,153.022000,16.815400L156.330000,16.815400C155.882000,18.216600,155.066000,19.369000,153.882000,20.272500C152.717000,21.157500,151.264000,21.600000,149.525000,21.600000C148.108000,21.600000,146.835000,21.277300,145.706000,20.632000C144.594000,19.968200,143.715000,19.046400,143.070000,17.866300C142.442000,16.667900,142.128000,15.285000,142.128000,13.717800C142.128000,12.150600,142.433000,10.777000,143.043000,9.596930C143.670000,8.398460,144.540000,7.476570,145.652000,6.831240C146.782000,6.185920,148.073000,5.863250,149.525000,5.863250C150.924000,5.863250,152.170000,6.176700,153.264000,6.803580C154.358000,7.430470,155.209000,8.315490,155.819000,9.458640C156.429000,10.583400,156.733000,11.883200,156.733000,13.358300ZM153.533000,12.362600C153.515000,11.201000,153.111000,10.269900,152.322000,9.569270C151.533000,8.868630,150.556000,8.518310,149.391000,8.518310C148.333000,8.518310,147.427000,8.868630,146.674000,9.569270C145.921000,10.251500,145.473000,11.182600,145.329000,12.362600L153.533000,12.362600Z" fill="rgb(117,255,105)" stroke="none" stroke-width="1"/><path id="evunu8kix38p13" d="M52.586500,21.544700C52.030700,21.544700,51.564400,21.351100,51.187900,20.963900C50.811300,20.576700,50.623000,20.097400,50.623000,19.525800C50.623000,18.954200,50.811300,18.474800,51.187900,18.087600C51.564400,17.700400,52.030700,17.506800,52.586500,17.506800C53.124500,17.506800,53.581700,17.700400,53.958300,18.087600C54.334800,18.474800,54.523100,18.954200,54.523100,19.525800C54.523100,20.097400,54.334800,20.576700,53.958300,20.963900C53.581700,21.351100,53.124500,21.544700,52.586500,21.544700Z" fill="rgb(73,170,38)" stroke="none" stroke-width="1"/><path id="evunu8kix38p14" d="M171.999000,17.325000C171.999000,18.105700,171.773000,18.839600,171.321000,19.526600C170.886000,20.213600,170.235000,20.791400,169.366000,21.259800C168.515000,21.728200,167.502000,22.009300,166.326000,22.103000L166.326000,24.000100L164.561000,24.000100L164.561000,22.103000C162.860000,21.962400,161.485000,21.501800,160.435000,20.721100C159.385000,19.940400,158.860000,18.909900,158.860000,17.629500L162.172000,17.629500C162.227000,18.238400,162.453000,18.745900,162.851000,19.151900C163.249000,19.542200,163.819000,19.792100,164.561000,19.901400L164.561000,14.748700C163.349000,14.483200,162.362000,14.217800,161.602000,13.952300C160.842000,13.671300,160.191000,13.234100,159.648000,12.640700C159.123000,12.047400,158.860000,11.235500,158.860000,10.204900C158.860000,8.908940,159.385000,7.839360,160.435000,6.996190C161.485000,6.137410,162.860000,5.637760,164.561000,5.497230L164.561000,3.600100L166.326000,3.600100L166.326000,5.497230C167.918000,5.622140,169.194000,6.059340,170.153000,6.808820C171.131000,7.542690,171.683000,8.557620,171.809000,9.853600L168.497000,9.853600C168.443000,9.369560,168.226000,8.940170,167.846000,8.565430C167.466000,8.175070,166.959000,7.909630,166.326000,7.769100L166.326000,12.828100C167.538000,13.077900,168.524000,13.343400,169.285000,13.624400C170.045000,13.889900,170.687000,14.319300,171.212000,14.912600C171.737000,15.490300,171.999000,16.294500,171.999000,17.325000ZM162.009000,10.064400C162.009000,10.704600,162.227000,11.204200,162.661000,11.563400C163.113000,11.922500,163.747000,12.211300,164.561000,12.429900L164.561000,7.698830C163.783000,7.776910,163.159000,8.018930,162.688000,8.424900C162.236000,8.830870,162.009000,9.377370,162.009000,10.064400ZM166.326000,19.901400C167.122000,19.792100,167.746000,19.518800,168.199000,19.081600C168.651000,18.628800,168.877000,18.090100,168.877000,17.465500C168.877000,16.841000,168.651000,16.356900,168.199000,16.013400C167.764000,15.654300,167.140000,15.365400,166.326000,15.146800L166.326000,19.901400Z" fill="rgb(73,170,38)" stroke="none" stroke-width="1"/></svg>